<mxfile host="app.diagrams.net" modified="2024-05-15T01:08:17.873Z" agent="Mozilla/5.0 (Windows NT 10.0; Win64; x64) AppleWebKit/537.36 (KHTML, like Gecko) Chrome/124.0.0.0 Safari/537.36" etag="-cWmbRHcZLM3R5L0ErSv" version="24.4.0" type="github">
  <diagram name="Página-1" id="btBhU6gRMKUw8AxsfhUI">
    <mxGraphModel dx="-2845" dy="583" grid="1" gridSize="10" guides="1" tooltips="1" connect="1" arrows="1" fold="1" page="1" pageScale="1" pageWidth="827" pageHeight="1169" math="0" shadow="0">
      <root>
        <mxCell id="0" />
        <mxCell id="1" parent="0" />
        <mxCell id="cS9pMNF9t11Ty7Y6Wsko-1" value="" style="rounded=0;html=1;jettySize=auto;orthogonalLoop=1;fontSize=11;endArrow=block;endFill=0;endSize=8;strokeWidth=1;shadow=0;labelBackgroundColor=none;edgeStyle=orthogonalEdgeStyle;" edge="1" parent="1" source="cS9pMNF9t11Ty7Y6Wsko-2" target="cS9pMNF9t11Ty7Y6Wsko-5">
          <mxGeometry relative="1" as="geometry" />
        </mxCell>
        <mxCell id="cS9pMNF9t11Ty7Y6Wsko-2" value="Cadastrar Eventos&amp;nbsp;" style="rounded=1;whiteSpace=wrap;html=1;fontSize=12;glass=0;strokeWidth=1;shadow=0;" vertex="1" parent="1">
          <mxGeometry x="4448.75" y="40" width="120" height="40" as="geometry" />
        </mxCell>
        <mxCell id="cS9pMNF9t11Ty7Y6Wsko-3" value="" style="edgeStyle=orthogonalEdgeStyle;rounded=0;html=1;jettySize=auto;orthogonalLoop=1;fontSize=11;endArrow=block;endFill=0;endSize=8;strokeWidth=1;shadow=0;labelBackgroundColor=none;entryX=0;entryY=0.5;entryDx=0;entryDy=0;" edge="1" parent="1" source="cS9pMNF9t11Ty7Y6Wsko-5" target="cS9pMNF9t11Ty7Y6Wsko-9">
          <mxGeometry y="10" relative="1" as="geometry">
            <mxPoint as="offset" />
            <mxPoint x="4889.75" y="207.5" as="targetPoint" />
          </mxGeometry>
        </mxCell>
        <mxCell id="cS9pMNF9t11Ty7Y6Wsko-4" style="edgeStyle=orthogonalEdgeStyle;rounded=0;orthogonalLoop=1;jettySize=auto;html=1;entryX=0.5;entryY=0;entryDx=0;entryDy=0;" edge="1" parent="1">
          <mxGeometry relative="1" as="geometry">
            <mxPoint x="4504.836956521739" y="302.4118187385177" as="sourcePoint" />
            <mxPoint x="4507.75" y="392.5" as="targetPoint" />
            <Array as="points">
              <mxPoint x="4507.75" y="302.5" />
            </Array>
          </mxGeometry>
        </mxCell>
        <mxCell id="cS9pMNF9t11Ty7Y6Wsko-5" value="Verifica se a data se esta disponivel&amp;nbsp;" style="rhombus;whiteSpace=wrap;html=1;shadow=0;fontFamily=Helvetica;fontSize=12;align=center;strokeWidth=1;spacing=6;spacingTop=-4;" vertex="1" parent="1">
          <mxGeometry x="4420" y="122.5" width="177.5" height="180" as="geometry" />
        </mxCell>
        <mxCell id="cS9pMNF9t11Ty7Y6Wsko-6" style="edgeStyle=orthogonalEdgeStyle;rounded=0;orthogonalLoop=1;jettySize=auto;html=1;entryX=0;entryY=0.5;entryDx=0;entryDy=0;" edge="1" parent="1" source="cS9pMNF9t11Ty7Y6Wsko-7" target="cS9pMNF9t11Ty7Y6Wsko-10">
          <mxGeometry relative="1" as="geometry" />
        </mxCell>
        <mxCell id="cS9pMNF9t11Ty7Y6Wsko-7" value="Salva no banco na tabela de Eventos o evento com suas informações&amp;nbsp;" style="rounded=1;whiteSpace=wrap;html=1;fontSize=12;glass=0;strokeWidth=1;shadow=0;" vertex="1" parent="1">
          <mxGeometry x="4451.75" y="392.5" width="120" height="70" as="geometry" />
        </mxCell>
        <mxCell id="cS9pMNF9t11Ty7Y6Wsko-8" value="Sim" style="text;html=1;align=center;verticalAlign=middle;resizable=0;points=[];autosize=1;strokeColor=none;fillColor=none;" vertex="1" parent="1">
          <mxGeometry x="4619.75" y="177.5" width="40" height="30" as="geometry" />
        </mxCell>
        <mxCell id="cS9pMNF9t11Ty7Y6Wsko-9" value="Retorna mensagem de data nao disponivel" style="rounded=1;whiteSpace=wrap;html=1;fontSize=12;glass=0;strokeWidth=1;shadow=0;" vertex="1" parent="1">
          <mxGeometry x="4689.75" y="182.5" width="120" height="60" as="geometry" />
        </mxCell>
        <mxCell id="cS9pMNF9t11Ty7Y6Wsko-10" value="Retorna mensagem de evento agendado junto com a data" style="rounded=1;whiteSpace=wrap;html=1;fontSize=12;glass=0;strokeWidth=1;shadow=0;" vertex="1" parent="1">
          <mxGeometry x="4669.75" y="402.5" width="120" height="50" as="geometry" />
        </mxCell>
      </root>
    </mxGraphModel>
  </diagram>
</mxfile>
